<svg width="74" height="23" viewBox="0 0 74 23" fill="none" xmlns="http://www.w3.org/2000/svg">
<g clip-path="url(#clip0_101_458)">
<path d="M5.51167 16.6488C4.73419 16.6488 4.03749 16.5226 3.42157 16.2701C2.80565 16.0177 2.31089 15.6441 1.9373 15.1494C1.5738 14.6546 1.38196 14.0589 1.36176 13.3622H4.11827C4.15866 13.756 4.29497 14.0589 4.5272 14.2709C4.75944 14.4729 5.06235 14.5738 5.43594 14.5738C5.81963 14.5738 6.12254 14.488 6.34468 14.3164C6.56682 14.1346 6.67788 13.8872 6.67788 13.5742C6.67788 13.3117 6.58701 13.0946 6.40526 12.923C6.23361 12.7513 6.01653 12.61 5.754 12.4989C5.50157 12.3878 5.13808 12.2616 4.66351 12.1202C3.97691 11.9082 3.41652 11.6962 2.98235 11.4841C2.54817 11.2721 2.17458 10.9591 1.86157 10.5451C1.54856 10.1311 1.39206 9.59092 1.39206 8.92451C1.39206 7.935 1.7505 7.16257 2.4674 6.60723C3.18429 6.04179 4.11827 5.75907 5.26934 5.75907C6.4406 5.75907 7.38468 6.04179 8.10158 6.60723C8.81847 7.16257 9.20216 7.94004 9.25264 8.93966H6.4507C6.43051 8.59636 6.30429 8.32878 6.07206 8.13694C5.83983 7.935 5.54196 7.83402 5.17847 7.83402C4.86546 7.83402 4.61303 7.91985 4.42118 8.0915C4.22934 8.25305 4.13342 8.49034 4.13342 8.80335C4.13342 9.14665 4.29497 9.41422 4.61808 9.60607C4.94118 9.79791 5.44604 10.0049 6.13264 10.227C6.81924 10.4593 7.37458 10.6814 7.79866 10.8934C8.23284 11.1055 8.60643 11.4134 8.91944 11.8173C9.23245 12.2212 9.38896 12.7412 9.38896 13.3773C9.38896 13.9832 9.23245 14.5334 8.91944 15.0282C8.61653 15.523 8.17226 15.9168 7.58662 16.2096C7.00099 16.5024 6.30934 16.6488 5.51167 16.6488ZM13.5727 9.28801C13.8251 8.89422 14.1735 8.57616 14.6178 8.33383C15.062 8.0915 15.582 7.97034 16.1778 7.97034C16.8745 7.97034 17.5055 8.14703 18.071 8.50043C18.6364 8.85383 19.0807 9.35869 19.4038 10.015C19.737 10.6713 19.9036 11.4336 19.9036 12.302C19.9036 13.1703 19.737 13.9377 19.4038 14.6041C19.0807 15.2604 18.6364 15.7703 18.071 16.1338C17.5055 16.4872 16.8745 16.6639 16.1778 16.6639C15.5921 16.6639 15.0721 16.5428 14.6178 16.3004C14.1735 16.0581 13.8251 15.7451 13.5727 15.3614V20.5715H10.9828V8.0915H13.5727V9.28801ZM17.2682 12.302C17.2682 11.6558 17.0865 11.1509 16.723 10.7874C16.3696 10.4138 15.9304 10.227 15.4053 10.227C14.8904 10.227 14.4511 10.4138 14.0877 10.7874C13.7343 11.161 13.5576 11.6709 13.5576 12.3171C13.5576 12.9633 13.7343 13.4733 14.0877 13.8468C14.4511 14.2204 14.8904 14.4072 15.4053 14.4072C15.9203 14.4072 16.3595 14.2204 16.723 13.8468C17.0865 13.4632 17.2682 12.9482 17.2682 12.302ZM25.1093 16.6639C24.2813 16.6639 23.5342 16.4872 22.8677 16.1338C22.2114 15.7804 21.6914 15.2756 21.3077 14.6193C20.9342 13.963 20.7474 13.1956 20.7474 12.3171C20.7474 11.4488 20.9392 10.6865 21.3229 10.0301C21.7066 9.36374 22.2316 8.85383 22.898 8.50043C23.5644 8.14703 24.3116 7.97034 25.1396 7.97034C25.9676 7.97034 26.7147 8.14703 27.3812 8.50043C28.0476 8.85383 28.5726 9.36374 28.9563 10.0301C29.34 10.6865 29.5318 11.4488 29.5318 12.3171C29.5318 13.1855 29.3349 13.9529 28.9412 14.6193C28.5575 15.2756 28.0274 15.7804 27.3509 16.1338C26.6845 16.4872 25.9373 16.6639 25.1093 16.6639ZM25.1093 14.4224C25.6041 14.4224 26.0231 14.2406 26.3664 13.8771C26.7198 13.5136 26.8965 12.9936 26.8965 12.3171C26.8965 11.6406 26.7248 11.1206 26.3815 10.7571C26.0483 10.3936 25.6344 10.2119 25.1396 10.2119C24.6347 10.2119 24.2157 10.3936 23.8825 10.7571C23.5493 11.1105 23.3827 11.6305 23.3827 12.3171C23.3827 12.9936 23.5443 13.5136 23.8674 13.8771C24.2006 14.2406 24.6145 14.4224 25.1093 14.4224ZM35.6161 14.3467V16.5428H34.2984C33.3594 16.5428 32.6274 16.3156 32.1023 15.8612C31.5773 15.3967 31.3148 14.6445 31.3148 13.6045V10.2422H30.2849V8.0915H31.3148V6.03169H33.9047V8.0915H35.601V10.2422H33.9047V13.6348C33.9047 13.8872 33.9652 14.069 34.0864 14.18C34.2076 14.2911 34.4095 14.3467 34.6922 14.3467H35.6161ZM38.3613 7.21305C37.9069 7.21305 37.5333 7.08179 37.2405 6.81927C36.9578 6.54665 36.8164 6.21344 36.8164 5.81965C36.8164 5.41577 36.9578 5.08257 37.2405 4.82004C37.5333 4.54742 37.9069 4.41111 38.3613 4.41111C38.8055 4.41111 39.169 4.54742 39.4518 4.82004C39.7446 5.08257 39.891 5.41577 39.891 5.81965C39.891 6.21344 39.7446 6.54665 39.4518 6.81927C39.169 7.08179 38.8055 7.21305 38.3613 7.21305ZM39.6486 8.0915V16.5428H37.0587V8.0915H39.6486ZM45.7663 10.2422H44.3729V16.5428H41.783V10.2422H40.844V8.0915H41.783V7.84917C41.783 6.80917 42.0809 6.0216 42.6766 5.48645C43.2723 4.94121 44.1457 4.66859 45.2968 4.66859C45.4886 4.66859 45.63 4.67363 45.7209 4.68373V6.87985C45.2261 6.84956 44.8778 6.92024 44.6758 7.09189C44.4739 7.26354 44.3729 7.5715 44.3729 8.01577V8.0915H45.7663V10.2422ZM55.3285 8.0915V16.5428H52.7386V15.3917C52.4761 15.7653 52.1177 16.0682 51.6633 16.3004C51.219 16.5226 50.7243 16.6336 50.179 16.6336C49.5328 16.6336 48.9623 16.4923 48.4676 16.2096C47.9728 15.9168 47.5891 15.4977 47.3165 14.9525C47.0439 14.4072 46.9076 13.7661 46.9076 13.029V8.0915H49.4823V12.6806C49.4823 13.2461 49.6287 13.6853 49.9215 13.9983C50.2144 14.3113 50.6081 14.4678 51.1029 14.4678C51.6078 14.4678 52.0066 14.3113 52.2994 13.9983C52.5922 13.6853 52.7386 13.2461 52.7386 12.6806V8.0915H55.3285Z" fill="white"/>
</g>
<defs>
<clipPath id="clip0_101_458">
<rect width="72.3082" height="21.497" fill="white" transform="translate(0.725647 0.54277)"/>
</clipPath>
</defs>
</svg>
